<svg width="16" height="16" viewBox="0 0 16 16" xmlns="http://www.w3.org/2000/svg"><title>icon</title><path d="M14.02 8c0-3.325-2.695-6.02-6.02-6.02-3.325 0-6.02 2.695-6.02 6.02 0 3.325 2.695 6.02 6.02 6.02 3.325 0 6.02-2.695 6.02-6.02zm1.96 0c0 4.407-3.573 7.98-7.98 7.98S.02 12.407.02 8 3.593.02 8 .02 15.98 3.593 15.98 8zM5.693 7.307c-.383-.383-1.003-.383-1.386 0s-.383 1.003 0 1.386l2 2c.345.345.89.384 1.28.09l4-3c.434-.324.522-.938.197-1.37-.325-.434-.94-.522-1.372-.197l-3.32 2.49-1.4-1.4z" fill-rule="nonzero" fill="#00CF63" id="app-icon" /></svg>