<svg width="14" height="14" viewBox="0 0 14 14" xmlns="http://www.w3.org/2000/svg"><title>icon-grid</title><path d="M4.375 4.375V1.75H1.75v2.625h2.625zm0 1.75H1.75C.784 6.126 0 5.343 0 4.376V1.75C0 .784.784 0 1.75 0h2.625c.966 0 1.75.784 1.75 1.75v2.625c0 .967-.784 1.75-1.75 1.75zm7.875-4.374H9.625v2.625h2.625V1.75zm0 4.376H9.625c-.967 0-1.75-.784-1.75-1.75V1.75c0-.966.783-1.75 1.75-1.75h2.625C13.217 0 14 .784 14 1.75v2.625c0 .967-.783 1.75-1.75 1.75zM4.375 12.25V9.624H1.75v2.625h2.625zm0 1.75H1.75C.784 14 0 13.216 0 12.25V9.625c0-.967.784-1.75 1.75-1.75h2.625c.966 0 1.75.783 1.75 1.75v2.625c0 .966-.784 1.75-1.75 1.75zm7.875-4.375H9.625v2.624h2.625V9.624zm0 4.375H9.625c-.967 0-1.75-.784-1.75-1.75V9.625c0-.967.783-1.75 1.75-1.75h2.625c.967 0 1.75.783 1.75 1.75v2.625c0 .966-.783 1.75-1.75 1.75z" fill="#ADBEC5" fill-rule="nonzero" id="app-icon" /></svg>