<svg width="14" height="14" viewBox="0 0 14 14" xmlns="http://www.w3.org/2000/svg"><title>icon-graph</title><path d="M13 12.143H1.857V1c0-.473-.384-.857-.857-.857S.143.527.143 1v11.143c0 .947.768 1.714 1.714 1.714H13c.473 0 .857-.384.857-.857s-.384-.857-.857-.857zM4.43 10.43V6.142c0-.474-.385-.857-.858-.857-.474 0-.858.383-.858.857v4.286c0 .472.384.856.858.856.473 0 .857-.384.857-.857zm.856-7.716v7.715c0 .472.384.856.857.856S7 10.902 7 10.43V2.713c0-.473-.384-.857-.857-.857s-.857.384-.857.857zm4.286 7.715V8.713c0-.473-.384-.857-.858-.857-.473 0-.857.384-.857.857v1.715c0 .472.384.856.857.856.474 0 .858-.384.858-.857zm2.57 0V5.285c0-.474-.383-.857-.856-.857-.474 0-.857.382-.857.856v5.143c0 .472.382.856.856.856.473 0 .857-.384.857-.857z" fill="#ADBEC5" fill-rule="nonzero" id="app-icon" /></svg>