<svg width="16" height="16" viewBox="0 0 16 16" xmlns="http://www.w3.org/2000/svg"><title>icon-tag</title><path d="M13.845 7.1c.058-.058.155-.29.155-.376V2H9.272c-.083 0-.317.097-.392.172L2.156 8.637l5.203 5.198L13.844 7.1zM16 6.725c0 .616-.308 1.36-.73 1.78L8.52 15.51c-.636.64-1.676.64-2.313.002L.48 9.79c-.64-.638-.64-1.68.013-2.33L7.48.746C7.912.31 8.656 0 9.27 0h5.09C15.267 0 16 .734 16 1.637v5.087zM13 4c0 .55-.447.998-1 .998-.553 0-1-.447-1-1 0-.552.447-1 1-1 .553 0 1 .448 1 1" fill="#ADBEC5" fill-rule="nonzero" id="app-icon" /></svg>