<svg width="14" height="16" viewBox="0 0 14 16" xmlns="http://www.w3.org/2000/svg"><title>icon-store</title><path d="M3 7.996c-1.268 0-2.168-.6-2.644-1.552C.086 5.906 0 5.39 0 4.997c0-.08.01-.163.03-.242l1-3.998C1.14.312 1.54 0 2 0h10c.46 0 .86.312.97.757l1 3.998c.02.08.03.16.03.242 0 .392-.086.91-.356 1.447-.476.952-1.376 1.552-2.644 1.552-.83 0-1.5-.256-2-.7-.5.444-1.17.7-2 .7-.83 0-1.5-.256-2-.7-.5.444-1.17.7-2 .7zM11.22 2H2.78l-.773 3.093c.015.122.057.295.137.456.15.296.374.446.856.446s.707-.15.856-.447C3.96 5.337 4 5.105 4 4.996c0-1.333 2-1.333 2 0 0 .11.04.34.144.552.15.296.374.446.856.446s.707-.15.856-.447C7.96 5.337 8 5.105 8 4.996c0-1.333 2-1.333 2 0 0 .11.04.34.144.552.15.296.374.446.856.446s.707-.15.856-.447c.08-.162.122-.335.137-.457L11.22 2zM11 13.99V9.995c0-.552.448-1 1-1s1 .448 1 1v3.998c0 1.105-.895 2-2 2H3c-1.105 0-2-.895-2-2V9.994c0-.552.448-1 1-1s1 .448 1 1v3.997h8z" fill="#ADBEC5" fill-rule="nonzero" id="app-icon" /></svg>