<svg width="16" height="16" viewBox="0 0 16 16" xmlns="http://www.w3.org/2000/svg"><title>icon-calendar</title><path d="M14 13.99V4H2v9.99h12zm0 2H2c-1.105 0-2-.894-2-1.998V3.998c0-1.104.895-2 2-2h12c1.105 0 2 .896 2 2v9.994c0 1.104-.895 2-2 2zM5 8.996h1c.552 0 1-.447 1-1 0-.552-.448-1-1-1H5c-.552 0-1 .448-1 1 0 .553.448 1 1 1zm5 0h1c.552 0 1-.447 1-1 0-.552-.448-1-1-1h-1c-.552 0-1 .448-1 1 0 .553.448 1 1 1zm-5 2.998h1c.552 0 1-.447 1-1 0-.552-.448-1-1-1H5c-.552 0-1 .448-1 1 0 .553.448 1 1 1zm5 0c-.552 0-1-.447-1-1 0-.552.448-1 1-1h1c.552 0 1 .448 1 1 0 .553-.448 1-1 1h-1zM5 4.997c0 .553-.448 1-1 1s-1-.447-1-1V1c0-.552.448-1 1-1s1 .448 1 1v3.997zm8 0c0 .553-.448 1-1 1s-1-.447-1-1V1c0-.552.448-1 1-1s1 .448 1 1v3.997z" fill="#ADBEC5" fill-rule="nonzero" id="app-icon" /></svg>