<svg width="16" height="16" viewBox="0 0 16 16" xmlns="http://www.w3.org/2000/svg"><title>icon</title><path d="M14 8c0-3.314-2.686-6-6-6S2 4.686 2 8s2.686 6 6 6 6-2.686 6-6zm2 0c0 4.418-3.582 8-8 8s-8-3.582-8-8 3.582-8 8-8 8 3.582 8 8zM8.707 5.88L5.88 8.706c-.392.39-.392 1.023 0 1.414.39.392 1.023.392 1.413 0l2.828-2.827c.392-.39.392-1.024 0-1.414-.39-.392-1.022-.392-1.413 0zM5.88 7.292l2.827 2.828c.39.392 1.023.392 1.414 0 .392-.39.392-1.023 0-1.413L7.294 5.88c-.39-.392-1.024-.392-1.414 0-.392.39-.392 1.022 0 1.413z" fill-rule="nonzero" fill="#ADBEC5" id="app-icon" /></svg>