<svg width="16" height="16" viewBox="0 0 16 16" xmlns="http://www.w3.org/2000/svg"><title>icon-coffee</title><path d="M9 13.99c.815 0 2-.7 2-.998V6.996H2v5.996c0 .55.448 1 1 1h6zm0 2H3c-1.656 0-3-1.342-3-2.998V6.996c0-1.104.896-2 2-2h9c1.104 0 2 .896 2 2v5.996c0 1.683-2.225 3-4 3zm5-5.997V7.995h-1v1.998h1zm0 2h-2c-.552 0-1-.447-1-1V6.996c0-.552.448-1 1-1h2c1.104 0 2 .895 2 2v1.998c0 1.104-.896 2-2 2zM7 1v2c0 .55.448 1 1 1s1-.45 1-1V1c0-.552-.448-1-1-1S7 .448 7 1zM4 2v1c0 .55.448 1 1 1s1-.45 1-1V2c0-.553-.448-1-1-1s-1 .447-1 1z" fill="#ADBEC5" fill-rule="nonzero" id="app-icon"/></svg>