<svg width="16" height="16" viewBox="0 0 16 16" xmlns="http://www.w3.org/2000/svg"><title>icon-picture</title><path d="M14 13.99V2H2v11.992h12zm0 2H2c-1.104 0-2-.894-2-1.998V2C0 .894.896 0 2 0h12c1.104 0 2 .895 2 2V13.99c0 1.104-.896 2-2 2zM10 4.998c0-.552.448-1 1-1s1 .448 1 1c0 1.104-.896 2-2 2s-2-.896-2-2 .896-2 2-2 2 .896 2 2c0 .553-.448 1-1 1s-1-.447-1-1zm-4.22.375l3.303 4.125 2.21-2.21c.39-.39 1.024-.39 1.414 0l3 3c.39.39.39 1.023 0 1.413-.39.39-1.023.39-1.414 0L12 9.41 9.707 11.7c-.42.422-1.115.384-1.488-.082l-3.146-3.93-3.242 4.86c-.307.46-.927.583-1.387.277-.46-.307-.583-.928-.277-1.387l4-5.996c.376-.563 1.19-.598 1.613-.07z" fill="#ADBEC5" fill-rule="nonzero" id="app-icon" /></svg>