<svg width="12" height="14" viewBox="0 0 12 14" xmlns="http://www.w3.org/2000/svg"><title>icon-chart</title><path d="M9.358 2.715c0 .942-.75 1.714-1.69 1.714H4.332c-.94 0-1.69-.773-1.69-1.715h-.785v9.427h8.284V2.715h-.784zm0-1.716H11c.474 0 .858.383.858.857v10.286c0 .942-.75 1.715-1.69 1.715H1.832c-.94 0-1.69-.773-1.69-1.715V1.857C.142 1.383.525 1 1 1h1.642c0-.474.385-.858.858-.858h5c.474 0 .858.384.858.857zm-5 1.714h3.284v-.856H4.358v.856zm.59 5.402c-.33-.34-.873-.347-1.212-.017-.34.33-.348.873-.018 1.212l.834.857c.337.346.893.346 1.23 0l2.5-2.572c.33-.34.322-.883-.017-1.213-.34-.33-.883-.323-1.213.017l-1.885 1.94-.22-.226z" fill="#ADBEC5" fill-rule="nonzero" id="app-icon"/></svg>