<svg width="14" height="12" viewBox="0 0 14 12" xmlns="http://www.w3.org/2000/svg"><title>icon-list</title><path d="M6.933 3.43V1.713h5.2V3.43h-5.2zm.125-1.716h5.948c1.32 0 1.32 1.715 0 1.715H7.058c-1.322 0-1.322-1.716 0-1.716zm-3.59 1.714V1.715H1.732V3.43l1.734-.002zm0 1.715H1.732C.777 5.143 0 4.376 0 3.43V1.714C0 .768.777 0 1.733 0h1.734C4.424 0 5.2.768 5.2 1.715V3.43c0 .946-.776 1.713-1.733 1.713zm3.465 5.143V8.57h5.2v1.716h-5.2zm.125-1.715h5.948c1.32 0 1.32 1.716 0 1.716H7.058c-1.322 0-1.322-1.715 0-1.715zm-3.59 1.715V8.57l-1.735.002v1.713h1.734zm0 1.715H1.732C.777 12 0 11.232 0 10.285V8.57c0-.946.777-1.713 1.733-1.713h1.734c.957 0 1.733.767 1.733 1.714v1.715C5.2 11.232 4.424 12 3.467 12z" fill="#ADBEC5" fill-rule="nonzero" id="app-icon" /></svg>