<svg width="17" height="19" viewBox="0 0 17 19" xmlns="http://www.w3.org/2000/svg"><title>icon</title><path d="M13.363 12.57l-1.537-2.644c-.113-.196-.173-.418-.173-.644v-3.43c0-1.81-1.51-3.288-3.385-3.288-1.875 0-3.384 1.48-3.384 3.29V9.28c0 .226-.06.448-.174.644L3.172 12.57h10.19zm-1.482 2.565c-.073 1.91-1.668 3.43-3.612 3.43-1.943 0-3.538-1.52-3.612-3.43H1.773c-1.377 0-2.204-1.31-1.54-2.608l2.087-3.59V5.853C2.32 2.615 4.99 0 8.268 0c3.28 0 5.95 2.615 5.95 5.853v3.084l2.118 3.65c.63 1.238-.195 2.548-1.572 2.548H11.88zm-2.57 0H7.226c.07.484.506.865 1.04.865.537 0 .972-.38 1.042-.865z" fill="#ADBEC5" fill-rule="nonzero" id="app-icon" /></svg>