<svg width="14" height="14" viewBox="0 0 14 14" xmlns="http://www.w3.org/2000/svg"><title>icon-inbox</title><path d="M.144 6.956c.006-.11.032-.215.076-.31L2.784.66c.135-.315.445-.52.788-.52h6.857c.342 0 .65.205.787.52l2.563 5.983c.044.096.07.2.076.31v5.188c0 .947-.766 1.714-1.713 1.714H1.857c-.947 0-1.714-.767-1.714-1.714V7v-.043zM2.3 6.143h2.13c.323 0 .62.183.765.474.07.138.235.387.483.634.387.388.825.607 1.322.607.498 0 .935-.22 1.323-.606.247-.246.413-.495.482-.633.145-.29.442-.474.767-.474H11.7L9.863 1.857H4.137L2.3 6.143zm9.843 1.714H10.05c-.137.192-.308.4-.515.606C8.85 9.147 8.003 9.57 7 9.57c-1.002 0-1.85-.423-2.535-1.107-.207-.207-.378-.414-.514-.606H1.858v4.286h10.286V7.857z" fill="#ADBEC5" fill-rule="nonzero" id="app-icon" /></svg>