<svg width="14" height="16" viewBox="0 0 14 16" xmlns="http://www.w3.org/2000/svg"><title>icon-user</title><path d="M9 3.998C9 2.895 8.105 2 7 2s-2 .895-2 1.998c0 1.104.895 1.998 2 1.998s2-.894 2-1.998zm2 0c0 2.208-1.79 3.998-4 3.998s-4-1.79-4-3.998S4.79 0 7 0s4 1.79 4 3.998zm-3 6.996H6c-1.864 0-3.43 1.274-3.874 2.997h9.748C11.43 12.27 9.864 10.995 8 10.995zm5 4.997H1c-.552 0-1-.447-1-1 0-3.31 2.686-5.996 6-5.996h2c3.314 0 6 2.685 6 5.997 0 .553-.448 1-1 1z" fill="#ADBEC5" fill-rule="nonzero" id="app-icon" /></svg>